#!OML:ASF H:\Terrain\Patient Classification 1\Walking\liu\liu.ASF
:FULLY-SPECIFIED
:DEGREES
282
root 10.0236 16.8548 2.60043 5.68797 -0.926544 2.66622
lowerback -5.1852 -2.82438 -3.73373
upperback -0.225363 -3.60853 2.14623
thorax 3.04392 -1.86736 4.02642
lowerneck -21.9482 -3.60668 -11.616
upperneck 22.1473 -4.22129 11.6598
head 11.3417 -1.46197 5.60898
rclavicle 3.27995e-015 -1.35174e-014
rhumerus -45.9657 7.96724 -82.8577
rradius 42.0939
rwrist -23.0897
rhand -28.5691 -23.3568
rfingers 7.12502
rthumb -1.93554 -53.3277
lclavicle 3.27995e-015 -1.35174e-014
lhumerus -15.866 -15.3809 86.1592
lradius 24.5687
lwrist 1.04965
lhand -14.9206 -24.7319
lfingers 7.12502
lthumb 11.2413 4.94689
rfemur -32.4352 -1.72609 17.346
rtibia 56.6477
rfoot -21.3118 -12.0963
rtoes -16.0739
lfemur -12.6711 4.79738 -29.1831
ltibia 27.4438
lfoot -18.8559 5.7849
ltoes -1.31575
283
root 10.0296 16.8624 2.72411 5.84157 -0.440546 2.50522
lowerback -5.1804 -3.00708 -3.69954
upperback -0.374019 -3.85961 2.31056
thorax 2.92164 -1.98845 4.15996
lowerneck -21.6225 -3.53344 -11.5965
upperneck 22.0695 -4.11913 11.5309
head 11.2314 -1.4379 5.5658
rclavicle 1.80397e-014 2.8625e-014
rhumerus -46.3432 8.3298 -82.8676
rradius 42.0867
rwrist -23.3426
rhand -29.1067 -24.6648
rfingers 7.12502
rthumb -2.45477 -54.6305
lclavicle 1.80397e-014 2.8625e-014
lhumerus -15.3492 -15.098 86.2153
lradius 24.6456
lwrist 0.557442
lhand -15.2922 -24.7855
lfingers 7.12502
lthumb 10.8829 4.9125
rfemur -33.289 -1.56819 17.4603
rtibia 55.2499
rfoot -22.1898 -11.9163
rtoes -15.733
lfemur -11.937 4.59152 -28.9832
ltibia 26.6593
lfoot -18.8332 5.614
ltoes -1.75068
284
root 10.0353 16.8725 2.86221 5.62552 -0.207706 2.40749
lowerback -5.04107 -3.08132 -3.67939
upperback -0.311976 -3.96641 2.38376
thorax 2.92269 -2.04348 4.22058
lowerneck -21.5152 -3.53259 -11.4194
upperneck 22.0749 -4.11651 11.2555
head 11.2015 -1.4576 5.42833
rclavicle -6.92765e-014 -1.35174e-014
rhumerus -46.3535 8.00849 -82.6808
rradius 41.7221
rwrist -22.9161
rhand -29.0372 -22.3369
rfingers 7.12502
rthumb -2.38766 -52.3033
lclavicle -6.92765e-014 -1.35174e-014
lhumerus -14.6742 -15.1537 86.1854
lradius 24.7036
lwrist 0.144595
lhand -15.4373 -24.8435
lfingers 7.12502
lthumb 10.743 4.86184
rfemur -33.6841 -1.16928 17.4625
rtibia 53.7657
rfoot -21.914 -12.2009
rtoes -17.746
lfemur -10.6976 4.75021 -28.8075
ltibia 25.7677
lfoot -19.0102 5.4465
ltoes -2.56494
285
root 10.0424 16.8795 3.00842 5.41957 0.0318454 2.65911
lowerback -5.34056 -3.16515 -3.87811
upperback 0.0534499 -4.0534 2.25926
thorax 3.4837 -2.10666 4.16808
lowerneck -21.9064 -3.62166 -11.3274
upperneck 22.1312 -4.22057 11.2
head 11.3088 -1.49347 5.37954
rclavicle -3.45885e-014 -1.19271e-014
rhumerus -46.0025 7.84116 -82.8132
rradius 41.525
rwrist -23.0625
rhand -29.7433 -22.1094
rfingers 7.12502
rthumb -3.06952 -52.067
lclavicle -3.45885e-014 -1.19271e-014
lhumerus -13.5345 -15.6818 85.9359
lradius 24.7948
lwrist 0.484209
lhand -15.333 -24.8567
lfingers 7.12502
lthumb 10.8435 4.8434
rfemur -34.06 -0.947898 17.0672
rtibia 52.2244
rfoot -21.0037 -12.3835
rtoes -20.7109
lfemur -9.45932 4.7464 -29.0325
ltibia 24.9445
lfoot -19.2601 5.45303
ltoes -3.88926
286
root 10.0477 16.8767 3.14546 5.40331 0.28887 2.85949
lowerback -5.4549 -3.23034 -4.10356
upperback 0.131608 -4.12145 2.23522
thorax 3.65089 -2.1493 4.25459
lowerneck -21.7004 -3.66188 -11.6772
upperneck 21.9097 -4.25577 11.5456
head 11.2086 -1.50183 5.55711
rclavicle -2.34069e-014 1.43125e-014
rhumerus -45.9018 7.69089 -82.7257
rradius 41.0901
rwrist -23.0377
rhand -30.273 -23.1654
rfingers 7.12502
rthumb -3.58111 -53.115
lclavicle -2.34069e-014 1.43125e-014
lhumerus -12.9027 -16.6267 86.0367
lradius 25.1328
lwrist 1.74851
lhand -15.4435 -24.6214
lfingers 7.12502
lthumb 10.737 5.0842
rfemur -34.7167 -0.773795 16.7383
rtibia 50.689
rfoot -21.4093 -12.2682
rtoes -20.7499
lfemur -8.30326 4.64437 -29.2108
ltibia 23.7793
lfoot -19.2634 5.35152
ltoes -4.64794
287
root 10.0439 16.8655 3.25999 5.60668 0.462089 2.58874
lowerback -5.23791 -3.23178 -3.92299
upperback -0.154963 -4.14648 2.364
thorax 3.23062 -2.14585 4.30528
lowerneck -21.5486 -3.70592 -11.792
upperneck 22.1544 -4.34378 11.6462
head 11.2887 -1.5455 5.61132
rclavicle 2.78299e-015 1.74931e-014
rhumerus -46.3381 7.35147 -82.5342
rradius 40.7798
rwrist -22.6883
rhand -29.5713 -22.4857
rfingers 7.12502
rthumb -2.90348 -52.4457
lclavicle 2.78299e-015 1.74931e-014
lhumerus -12.8375 -17.5723 86.276
lradius 25.6138
lwrist 2.65347
lhand -15.9624 -24.4987
lfingers 7.12502
lthumb 10.2364 5.23222
rfemur -35.6649 -0.289747 16.9722
rtibia 49.0128
rfoot -21.1748 -12.7254
rtoes -22.4517
lfemur -7.51407 4.79697 -28.8351
ltibia 22.5962
lfoot -19.073 5.03911
ltoes -4.67361
288
root 10.0592 16.8675 3.4253 5.29408 0.626505 3.21933
lowerback -5.242 -3.3357 -4.39707
upperback -0.130055 -4.24785 2.10506
thorax 3.28454 -2.20277 4.29124
lowerneck -21.7834 -3.74783 -11.471
upperneck 22.8202 -4.42849 11.2339
head 11.5777 -1.60427 5.41212
rclavicle 3.13086e-014 9.54166e-015
rhumerus -47.0372 7.58261 -82.8659
rradius 41.019
rwrist -23.1454
rhand -29.7128 -21.3649
rfingers 7.12502
rthumb -3.04005 -51.323
lclavicle 3.13086e-014 9.54166e-015
lhumerus -12.6708 -18.3295 86.2308
lradius 25.9938
lwrist 3.22382
lhand -16.1584 -24.5274
lfingers 7.12502
lthumb 10.0474 5.21273
rfemur -35.702 -0.40365 16.1294
rtibia 47.32
rfoot -21.0176 -12.4269
rtoes -23.9856
lfemur -5.86833 5.07437 -29.4702
ltibia 21.4907
lfoot -19.2279 4.75667
ltoes -4.88553
289
root 10.0642 16.8765 3.56397 5.26436 0.747277 3.21463
lowerback -5.31438 -3.40358 -4.44428
upperback -0.162207 -4.333 2.11084
thorax 3.30518 -2.24573 4.31243
lowerneck -21.6251 -3.74849 -11.4269
upperneck 22.9842 -4.43275 11.0802
head 11.6043 -1.6267 5.34969
rclavicle 1.58034e-014 3.97569e-015
rhumerus -47.4613 8.14196 -83.2391
rradius 41.041
rwrist -23.7157
rhand -30.7223 -21.51
rfingers 7.12502
rthumb -4.01494 -51.4519
lclavicle 1.58034e-014 3.97569e-015
lhumerus -12.3039 -19.4514 86.1885
lradius 26.275
lwrist 4.5616
lhand -15.9567 -24.5113
lfingers 7.12502
lthumb 10.242 5.21939
rfemur -36.0899 0.131088 15.9081
rtibia 45.4779
rfoot -21.0528 -12.1755
rtoes -23.9994
lfemur -4.81137 5.06257 -29.4015
ltibia 20.578
lfoot -19.2722 4.68511
ltoes -4.41461
290
root 10.0667 16.8667 3.69289 5.46091 1.07645 3.28189
lowerback -5.6562 -3.48728 -4.57079
upperback -0.0504224 -4.4223 2.11308
thorax 3.6333 -2.30177 4.35332
lowerneck -21.6414 -3.84306 -11.6495
upperneck 22.7217 -4.56604 11.4325
head 11.5423 -1.66114 5.49265
rclavicle 9.98893e-015 4.77083e-015
rhumerus -47.2568 8.09185 -83.1631
rradius 40.6213
rwrist -23.48
rhand -30.4673 -22.7392
rfingers 7.12502
rthumb -3.76871 -52.6856
lclavicle 9.98893e-015 4.77083e-015
lhumerus -11.5346 -20.9239 86.1377
lradius 26.5753
lwrist 6.15738
lhand -15.9004 -24.3888
lfingers 7.12502
lthumb 10.2963 5.33915
rfemur -36.7079 0.462585 15.5575
rtibia 43.658
rfoot -21.508 -11.4531
rtoes -23.4233
lfemur -3.9062 4.8883 -29.4117
ltibia 19.3293
lfoot -19.0152 4.51028
ltoes -3.76055
